<svg width="21" height="20" viewBox="0 0 21 20" fill="none" xmlns="http://www.w3.org/2000/svg">
<path fill-rule="evenodd" clip-rule="evenodd" d="M3.43066 10.0002C3.43066 13.6821 6.50245 16.6668 10.2917 16.6668C14.0809 16.6668 17.1527 13.6821 17.1527 10.0002C17.1527 6.31826 14.0809 3.3335 10.2917 3.3335C6.50245 3.3335 3.43066 6.31826 3.43066 10.0002ZM4.28829 10.0002C4.28829 13.2218 6.97611 15.8335 10.2917 15.8335C13.6073 15.8335 16.2951 13.2218 16.2951 10.0002C16.2951 6.7785 13.6073 4.16683 10.2917 4.16683C6.97611 4.16683 4.28829 6.7785 4.28829 10.0002ZM9.09821 13.4491V14.1668H12.1644V13.4491L11.2088 13.2896V8.00309H9.09821V8.72656L10.0538 8.88607V13.2896L9.09821 13.4491ZM11.2088 5.28011V6.42513H10.0538V5.28011H11.2088Z" fill="#0063F7"/>
</svg>
