<svg width="24" height="24" viewBox="0 0 24 24" fill="none" xmlns="http://www.w3.org/2000/svg">
<path d="M7.7619 19.905H3V7.555H7.7619V19.905ZM5.38095 5.655C3.95238 5.655 3 4.515 3 3.28C3 2.045 3.95238 1 5.38095 1C6.90476 1 7.7619 2.045 7.85714 3.28C7.85714 4.515 6.90476 5.655 5.38095 5.655ZM16.3333 11.355C15.2857 11.355 14.4286 12.21 14.4286 13.255V19.905H9.66667C9.66667 19.905 9.7619 8.505 9.66667 7.555H14.4286V8.98C14.4286 8.98 15.8571 7.65 18.1429 7.65C21 7.65 23 9.645 23 13.635V20H18.2381V13.35C18.2381 12.21 17.381 11.355 16.3333 11.355Z" fill="white"/>
</svg>
